<svg width="96" height="96" viewBox="0 0 96 96" fill="none" xmlns="http://www.w3.org/2000/svg">
<mask id="path-1-inside-1_221_1551" fill="white">
<path d="M17.6888 65.3109C21.5411 71.9833 27.4875 77.1982 34.6057 80.1467C41.724 83.0951 49.6162 83.6124 57.0583 81.6183C64.5005 79.6242 71.0767 75.2301 75.767 69.1175C80.4573 63.005 82.9997 55.5156 82.9997 47.8109C82.9997 40.1062 80.4573 32.6168 75.767 26.5042C71.0767 20.3917 64.5005 15.9976 57.0583 14.0035C49.6162 12.0094 41.7239 12.5266 34.6057 15.4751C27.4875 18.4236 21.5411 23.6384 17.6888 30.3109L19.9235 31.6011C23.4919 25.4206 28.9999 20.5902 35.5933 17.8592C42.1866 15.1281 49.497 14.6489 56.3904 16.496C63.2839 18.3431 69.3753 22.4133 73.7198 28.0751C78.0643 33.737 80.4192 40.6742 80.4192 47.8109C80.4192 54.9475 78.0643 61.8847 73.7198 67.5466C69.3753 73.2085 63.2839 77.2786 56.3904 79.1257C49.497 80.9728 42.1866 80.4937 35.5933 77.7626C28.9999 75.0315 23.4919 70.2011 19.9235 64.0206L17.6888 65.3109Z"/>
</mask>
<path d="M17.6888 65.3109C21.5411 71.9833 27.4875 77.1982 34.6057 80.1467C41.724 83.0951 49.6162 83.6124 57.0583 81.6183C64.5005 79.6242 71.0767 75.2301 75.767 69.1175C80.4573 63.005 82.9997 55.5156 82.9997 47.8109C82.9997 40.1062 80.4573 32.6168 75.767 26.5042C71.0767 20.3917 64.5005 15.9976 57.0583 14.0035C49.6162 12.0094 41.7239 12.5266 34.6057 15.4751C27.4875 18.4236 21.5411 23.6384 17.6888 30.3109L19.9235 31.6011C23.4919 25.4206 28.9999 20.5902 35.5933 17.8592C42.1866 15.1281 49.497 14.6489 56.3904 16.496C63.2839 18.3431 69.3753 22.4133 73.7198 28.0751C78.0643 33.737 80.4192 40.6742 80.4192 47.8109C80.4192 54.9475 78.0643 61.8847 73.7198 67.5466C69.3753 73.2085 63.2839 77.2786 56.3904 79.1257C49.497 80.9728 42.1866 80.4937 35.5933 77.7626C28.9999 75.0315 23.4919 70.2011 19.9235 64.0206L17.6888 65.3109Z" stroke="#F4C22F" stroke-width="4" mask="url(#path-1-inside-1_221_1551)"/>
<path d="M46.9409 54.811C46.7575 54.8155 46.5774 54.7555 46.4256 54.6393C46.2738 54.523 46.1579 54.3562 46.094 54.1622C46.0301 53.9682 46.0214 53.7566 46.0691 53.5567C46.1167 53.3568 46.2184 53.1788 46.36 53.0471L51.7612 47.8273L46.36 42.6094C46.262 42.5282 46.18 42.4251 46.1191 42.3065C46.0581 42.1879 46.0195 42.0563 46.0057 41.9201C45.9919 41.7839 46.0032 41.646 46.0388 41.515C46.0744 41.3839 46.1337 41.2625 46.2128 41.1585C46.292 41.0544 46.3893 40.97 46.4987 40.9104C46.6081 40.8507 46.7273 40.8172 46.8487 40.812C46.9702 40.8067 47.0913 40.8297 47.2044 40.8796C47.3176 40.9296 47.4204 41.0053 47.5064 41.1022L53.6903 47.0708C53.7874 47.1643 53.8654 47.2803 53.9188 47.4111C53.9723 47.5419 54 47.6842 54 47.8282C54 47.9723 53.9723 48.1146 53.9188 48.2454C53.8654 48.3761 53.7874 48.4923 53.6903 48.5858L47.5064 54.5601C47.3502 54.7167 47.1498 54.8054 46.9409 54.811Z" fill="#F4C22F"/>
</svg>
