<svg width="40" height="40" viewBox="0 0 40 40" fill="none" xmlns="http://www.w3.org/2000/svg">
<rect x="0.625" y="0.625" width="38.75" height="38.75" rx="5.625" stroke="#B8B8B8" stroke-width="1.25"/>
<path d="M25.2388 23.4708C24.1378 23.4708 23.1459 23.9467 22.4575 24.7037L16.2652 20.865C16.4305 20.4414 16.5222 19.9813 16.5222 19.5C16.5222 19.0185 16.4305 18.5584 16.2652 18.135L22.4575 14.2961C23.1459 15.0531 24.1378 15.5292 25.2388 15.5292C27.3128 15.5292 29 13.8404 29 11.7645C29 9.68861 27.3128 8 25.2388 8C23.1648 8 21.4776 9.68878 21.4776 11.7647C21.4776 12.246 21.5695 12.7061 21.7346 13.1297L15.5425 16.9684C14.8541 16.2114 13.8622 15.7353 12.7612 15.7353C10.6872 15.7353 9 17.4243 9 19.5C9 21.5759 10.6872 23.2647 12.7612 23.2647C13.8622 23.2647 14.8541 22.7888 15.5425 22.0316L21.7346 25.8703C21.5695 26.2939 21.4776 26.754 21.4776 27.2355C21.4776 29.3112 23.1648 31 25.2388 31C27.3128 31 29 29.3112 29 27.2355C29 25.1596 27.3128 23.4708 25.2388 23.4708ZM22.8491 11.7647C22.8491 10.4458 23.9212 9.37275 25.2388 9.37275C26.5565 9.37275 27.6285 10.4458 27.6285 11.7647C27.6285 13.0835 26.5565 14.1566 25.2388 14.1566C23.9212 14.1566 22.8491 13.0835 22.8491 11.7647ZM12.7612 21.8919C11.4434 21.8919 10.3713 20.8189 10.3713 19.5C10.3713 18.1811 11.4434 17.1081 12.7612 17.1081C14.0788 17.1081 15.1507 18.1811 15.1507 19.5C15.1507 20.8189 14.0788 21.8919 12.7612 21.8919ZM22.8491 27.2353C22.8491 25.9165 23.9212 24.8434 25.2388 24.8434C26.5565 24.8434 27.6285 25.9165 27.6285 27.2353C27.6285 28.5542 26.5565 29.6273 25.2388 29.6273C23.9212 29.6273 22.8491 28.5542 22.8491 27.2353Z" fill="#B8B8B8"/>
</svg>
